<svg xmlns="http://www.w3.org/2000/svg" data-name="Layer 1" viewBox="0 0 32 40" x="0px" y="0px"><path d="M4,23a5.006,5.006,0,0,0,5,5H23a5.006,5.006,0,0,0,5-5V9a5.006,5.006,0,0,0-5-5H9A5.006,5.006,0,0,0,4,9ZM6,9A3,3,0,0,1,9,6H23a3,3,0,0,1,3,3V23a3,3,0,0,1-3,3H9a3,3,0,0,1-3-3Z"/><path d="M9,22h1v1a1,1,0,0,0,2,0V22h1a1,1,0,0,0,0-2H12V19a1,1,0,0,0-2,0v1H9a1,1,0,0,0,0,2Z"/><path d="M19,12h4a1,1,0,0,0,0-2H19a1,1,0,0,0,0,2Z"/><path d="M19,21h4a1,1,0,0,0,0-2H19a1,1,0,0,0,0,2Z"/><path d="M19,24h4a1,1,0,0,0,0-2H19a1,1,0,0,0,0,2Z"/><path d="M8.879,13.121a1,1,0,0,0,1.414,0L11,12.414l.707.707a1,1,0,1,0,1.414-1.414L12.414,11l.707-.707a1,1,0,1,0-1.414-1.414L11,9.586l-.707-.707a1,1,0,1,0-1.414,1.414L9.586,11l-.707.707A1,1,0,0,0,8.879,13.121Z"/><text x="0" y="47" fill="#000000" font-size="5px" font-weight="bold" font-family="'Helvetica Neue', Helvetica, Arial-Unicode, Arial, Sans-serif">Created by Anggara Putra</text><text x="0" y="52" fill="#000000" font-size="5px" font-weight="bold" font-family="'Helvetica Neue', Helvetica, Arial-Unicode, Arial, Sans-serif">from the Noun Project</text></svg>