<?xml version="1.0" standalone="no"?>
<!DOCTYPE svg PUBLIC "-//W3C//DTD SVG 20010904//EN"
 "http://www.w3.org/TR/2001/REC-SVG-20010904/DTD/svg10.dtd">
<svg version="1.0" xmlns="http://www.w3.org/2000/svg"
 width="2070" height="2065" viewBox="0 0 2070 2065">

<g transform="translate(0.000000,342.000000) scale(0.100000,-0.100000)"
fill="#000000" stroke="none">
<path d="M2490 3226 l0 -65 94 -44 c411 -195 699 -559 791 -1002 15 -72 24
-97 24 -73 1 20 -8 84 -19 141 -79 407 -310 759 -645 982 -81 54 -214 125
-234 125 -7 0 -11 -25 -11 -64z"/>
<path d="M1746 3050 c-276 -35 -539 -147 -752 -321 -249 -203 -430 -497 -506
-819 -29 -126 -36 -413 -14 -551 33 -199 122 -422 237 -591 84 -122 267 -306
387 -387 153 -103 352 -187 544 -228 112 -24 449 -25 553 0 l70 16 -60 -7
c-33 -3 -121 -6 -195 -5 -368 1 -694 137 -955 398 -210 209 -335 442 -391 731
-27 135 -24 387 5 523 29 135 52 202 115 336 98 204 275 406 472 538 161 107
305 168 495 208 137 29 378 32 519 6 430 -80 801 -361 993 -752 19 -39 40 -87
47 -108 6 -21 14 -37 16 -34 7 7 -42 139 -85 230 -164 343 -489 631 -844 748
-147 49 -266 69 -432 74 -82 2 -181 0 -219 -5z"/>
<path d="M2075 2375 c8 -63 45 -181 97 -310 62 -155 81 -225 81 -292 1 -55 -3
-67 -29 -100 -31 -38 -39 -44 -174 -108 -200 -95 -335 -272 -397 -517 -21 -83
-26 -129 -27 -233 -1 -127 17 -255 35 -255 5 0 9 7 9 15 0 19 50 169 89 268
151 379 349 551 579 503 129 -27 248 -103 395 -251 l87 -88 0 39 c0 95 -52
228 -122 315 -62 76 -70 93 -59 122 27 69 98 87 349 87 l187 0 -3 -62 c-3 -54
1 -71 25 -118 18 -35 45 -66 72 -85 39 -27 50 -30 119 -30 63 1 86 5 127 27
61 32 109 80 129 130 22 51 21 55 -16 51 -65 -8 -78 -14 -93 -44 -20 -38 -70
-69 -112 -69 -38 0 -105 52 -88 68 6 5 72 37 148 72 75 34 137 66 137 69 0 22
-65 104 -101 128 -36 24 -53 28 -108 28 -76 -1 -130 -24 -184 -80 l-35 -36
-93 19 c-89 18 -96 18 -161 1 -256 -65 -444 -4 -596 196 -71 94 -173 302 -223
455 -22 68 -43 127 -46 130 -3 3 -2 -17 2 -45z m1359 -756 c14 -11 26 -24 26
-28 0 -7 -148 -81 -163 -81 -4 0 -7 18 -7 40 0 34 5 43 37 65 46 30 72 32 107
4z"/>
<path d="M2653 2169 c33 -25 27 -39 -16 -39 -18 0 -43 -3 -55 -7 l-24 -6 28
-22 27 -22 -52 -29 c-29 -15 -49 -29 -45 -30 5 -1 22 -5 37 -8 l28 -7 -22 -18
c-22 -18 -22 -18 -1 -17 16 1 28 -12 49 -54 25 -50 35 -59 108 -97 l80 -42 25
30 c14 16 33 29 42 29 12 0 19 11 23 38 3 20 10 45 16 54 5 10 9 26 9 35 0 10
18 41 40 68 41 51 49 71 28 62 -57 -21 -58 -20 -58 20 -1 36 -2 37 -15 19 -15
-19 -16 -19 -48 10 -17 17 -40 36 -50 44 -16 12 -17 11 -7 -15 8 -22 8 -26 -4
-22 -35 14 -149 47 -160 47 -6 0 1 -10 17 -21z"/>
<path d="M4355 1730 c-56 -9 -97 -33 -138 -80 -86 -100 -70 -264 33 -335 51
-35 145 -51 218 -36 57 11 126 51 143 82 7 15 1 20 -41 34 -49 16 -50 16 -93
-9 -24 -14 -55 -26 -68 -26 -49 0 -109 55 -109 101 0 5 67 9 159 9 95 0 162 4
166 10 12 19 -15 126 -43 164 -45 66 -137 100 -227 86z m86 -100 c16 -9 49
-58 49 -75 0 -3 -43 -5 -96 -5 -94 0 -95 0 -89 23 18 58 83 85 136 57z"/>
<path d="M3885 1711 c-47 -25 -45 -25 -45 -6 0 12 -18 15 -106 15 l-105 0 3
-47 c3 -42 6 -48 26 -49 12 -1 27 -2 32 -3 6 -1 10 -48 10 -121 l0 -120 -35 0
-35 0 0 -50 0 -50 134 0 134 0 4 50 3 50 -32 0 -33 0 0 105 c0 93 2 105 19
115 31 16 88 13 95 -6 3 -9 6 -83 6 -165 l0 -150 103 3 102 3 3 48 3 47 -35 0
-36 0 0 113 c0 129 -10 174 -45 207 -36 33 -116 39 -170 11z"/>
<path d="M4929 1721 c-14 -5 -35 -14 -47 -20 -18 -10 -22 -9 -22 4 0 12 -17
15 -105 15 l-105 0 0 -45 c0 -38 3 -45 19 -45 49 0 51 -5 51 -131 l0 -119 -35
0 -35 0 0 -50 0 -50 140 0 140 0 0 50 0 50 -35 0 -35 0 0 100 0 99 30 16 c38
19 94 19 114 -1 13 -13 16 -42 16 -165 l0 -149 105 0 105 0 0 40 c0 22 1 43 3
48 1 4 -15 8 -35 10 l-38 3 0 99 0 99 31 16 c17 9 48 15 72 13 60 -4 67 -24
67 -190 l0 -138 105 0 105 0 0 50 0 50 -34 0 -33 0 -5 128 c-6 147 -18 180
-74 207 -52 25 -147 16 -210 -19 -47 -26 -47 -26 -68 -7 -41 38 -120 52 -187
32z"/>
<path d="M3198 1180 l4 -40 49 0 c38 0 49 4 49 16 0 9 -5 12 -12 8 -11 -7 -40
-9 -64 -5 -4 1 -1 8 6 16 9 10 9 15 1 15 -6 0 -11 4 -11 9 0 5 14 9 31 9 23
-1 36 -9 52 -34 16 -25 29 -34 50 -34 17 0 27 5 27 15 0 8 7 15 15 15 8 0 15
-7 15 -15 0 -10 10 -15 31 -15 29 0 30 2 24 33 -6 30 -5 31 10 13 8 -11 15
-23 15 -28 0 -18 17 -6 28 20 l11 27 -3 -32 c-1 -21 2 -33 10 -33 7 0 14 17
16 40 3 33 1 40 -15 40 -10 0 -21 -10 -26 -22 l-8 -22 -12 22 c-6 12 -20 22
-29 22 -15 0 -17 -7 -14 -36 3 -28 1 -35 -9 -32 -8 3 -15 19 -17 36 -3 26 -8
32 -27 32 -17 0 -23 -4 -19 -14 3 -8 0 -24 -6 -36 -11 -21 -13 -21 -28 -6 -14
13 -14 20 -4 36 10 16 10 20 -2 20 -8 0 -17 -6 -19 -12 -4 -10 -6 -10 -6 0 -1
8 -20 12 -59 12 l-58 0 4 -40z"/>
<path d="M3575 1180 c0 -38 1 -40 33 -40 17 0 32 5 32 10 0 6 -8 10 -17 8 -12
-2 -18 5 -20 25 -2 24 1 27 18 22 11 -4 19 -2 19 4 0 6 -15 11 -32 11 -32 0
-33 -2 -33 -40z"/>
<path d="M3685 1180 c-1 -27 3 -40 12 -40 9 0 12 8 7 28 l-6 27 25 -30 24 -29
5 42 c2 28 0 42 -8 42 -7 0 -10 -9 -8 -22 l5 -23 -17 23 c-25 33 -39 27 -39
-18z"/>
<path d="M3784 1203 c0 -10 -4 -28 -8 -40 -6 -18 -4 -23 9 -23 11 0 15 5 11
15 -3 9 0 15 9 15 9 0 12 -6 9 -15 -4 -10 0 -15 11 -15 14 0 16 5 10 28 -4 15
-8 33 -8 40 -1 20 -43 15 -43 -5z"/>
<path d="M3867 1213 c-4 -3 -7 -19 -7 -34 0 -30 24 -44 54 -33 25 9 19 22 -8
17 -27 -6 -39 7 -30 32 5 12 14 15 30 11 14 -4 24 -2 24 4 0 11 -53 14 -63 3z"/>
<path d="M3952 1180 c-1 -28 2 -40 12 -40 9 0 15 14 18 40 3 32 0 40 -13 40
-11 0 -16 -11 -17 -40z"/>
<path d="M4004 1195 c-7 -29 10 -55 36 -55 24 0 42 24 38 52 -2 18 -10 24 -35
26 -28 3 -33 -1 -39 -23z m54 -13 c3 -17 -2 -22 -17 -22 -14 0 -21 6 -21 18 0
38 33 41 38 4z"/>
<path d="M4105 1180 c-1 -24 4 -40 11 -40 7 0 9 11 7 28 l-5 27 25 -30 24 -29
5 42 c2 28 0 42 -8 42 -7 0 -10 -9 -8 -22 l5 -23 -17 23 c-25 33 -39 27 -39
-18z"/>
<path d="M4204 1198 c0 -13 -4 -31 -8 -40 -5 -11 -4 -18 3 -18 6 0 11 7 11 15
0 8 5 15 10 15 6 0 10 -7 10 -15 0 -8 7 -15 16 -15 11 0 13 6 8 23 -4 12 -8
30 -8 40 0 27 -41 22 -42 -5z"/>
<path d="M4278 1180 c4 -37 7 -40 33 -40 23 0 29 4 29 22 0 21 -1 21 -13 3
-18 -23 -32 -4 -23 31 5 19 2 24 -12 24 -14 0 -17 -7 -14 -40z"/>
<path d="M4388 1180 c4 -34 8 -40 27 -40 29 0 47 22 43 52 -2 18 -10 24 -38
26 l-36 3 4 -41z m47 2 c0 -31 -19 -28 -23 4 -3 18 0 25 10 22 7 -3 13 -14 13
-26z"/>
<path d="M4491 1206 c-16 -19 -11 -46 12 -60 25 -16 52 4 52 40 0 24 -5 30
-26 32 -14 2 -31 -4 -38 -12z m49 -21 c0 -18 -5 -25 -20 -25 -20 0 -28 28 -13
43 15 16 33 6 33 -18z"/>
<path d="M4615 1180 c-1 -37 1 -40 26 -40 15 0 31 5 35 11 4 7 0 9 -14 5 -18
-6 -21 -3 -20 24 1 25 4 29 20 25 10 -4 18 -2 18 4 0 6 -15 11 -32 11 -32 0
-33 -2 -33 -40z"/>
<path d="M4695 1180 c-1 -24 4 -40 11 -40 7 0 9 11 7 28 l-5 27 25 -30 24 -29
5 42 c2 28 0 42 -8 42 -7 0 -10 -9 -8 -22 l5 -23 -17 23 c-25 33 -39 27 -39
-18z"/>
<path d="M4784 1209 c-4 -7 4 -20 17 -30 l24 -19 -24 0 c-19 0 -22 -3 -14 -11
15 -15 43 -4 43 16 0 9 -7 18 -15 21 -8 4 -15 11 -15 16 0 6 7 8 15 4 8 -3 15
-1 15 4 0 14 -37 12 -46 -1z"/>
<path d="M4855 1180 c0 -24 4 -40 11 -40 7 0 11 14 10 33 -1 22 3 32 14 32 11
0 15 -10 14 -32 -1 -21 3 -33 11 -33 8 0 11 10 8 28 l-5 27 25 -30 24 -29 5
42 c2 28 0 42 -8 42 -7 0 -10 -9 -8 -22 l5 -23 -17 23 c-12 16 -27 22 -53 22
-36 0 -36 -1 -36 -40z"/>
<path d="M5000 1201 c-14 -26 -3 -50 26 -57 42 -11 72 34 42 64 -18 18 -56 14
-68 -7z m56 -6 c4 -8 0 -22 -7 -31 -11 -13 -14 -13 -27 0 -17 17 -9 46 13 46
9 0 18 -7 21 -15z"/>
<path d="M5128 1180 c2 -22 8 -40 13 -40 5 0 6 14 2 32 -4 22 -3 29 5 24 7 -4
12 -13 12 -21 0 -26 20 -26 30 -1 13 35 24 33 17 -4 -5 -22 -3 -30 7 -30 9 0
15 15 18 40 3 35 1 40 -18 40 -14 0 -24 -8 -28 -22 l-7 -23 -9 23 c-5 12 -17
22 -27 22 -16 0 -18 -7 -15 -40z"/>
<path d="M5255 1180 c0 -37 2 -40 27 -40 16 0 28 5 28 11 0 6 -6 9 -14 6 -11
-4 -14 2 -14 24 1 21 5 28 15 25 7 -3 13 -1 13 4 0 6 -12 10 -28 10 -25 0 -27
-3 -27 -40z"/>
<path d="M5335 1180 c0 -43 15 -51 56 -30 38 21 17 70 -31 70 -23 0 -25 -4
-25 -40z m53 3 c4 -24 -26 -40 -34 -18 -8 21 3 47 19 43 6 -3 13 -14 15 -25z"/>
<path d="M5425 1180 c0 -29 4 -40 15 -40 12 0 16 10 15 40 0 29 -4 40 -15 40
-11 0 -15 -11 -15 -40z"/>
<path d="M5484 1206 c-15 -39 21 -80 54 -60 21 14 28 54 10 65 -21 14 -58 10
-64 -5z m54 -23 c4 -27 -25 -38 -37 -14 -7 12 -6 22 2 30 16 16 31 9 35 -16z"/>
<path d="M2278 173 c7 -3 16 -2 19 1 4 3 -2 6 -13 5 -11 0 -14 -3 -6 -6z"/>
</g>
</svg>
